{
  "accessors": [
    {
      "bufferView": 2,
      "componentType": 5126,
      "count": 65533,
      "max": [
        2.107182025909424,
        1.6239140033721924,
        1.806156873703003
      ],
      "min": [
        -2.107182025909424,
        -1.0,
        -1.806157112121582
      ],
      "type": "VEC3"
    },
    {
      "bufferView": 2,
      "byteOffset": 786396,
      "componentType": 5126,
      "count": 65533,
      "max": [
        1.0,
        1.0,
        1.0
      ],
      "min": [
        -1.0,
        -1.0,
        -1.0
      ],
      "type": "VEC3"
    },
    {
      "bufferView": 1,
      "componentType": 5126,
      "count": 65533,
      "max": [
        1.0,
        1.0
      ],
      "min": [
        0.0,
        0.0
      ],
      "type": "VEC2"
    },
    {
      "bufferView": 1,
      "byteOffset": 524264,
      "componentType": 5126,
      "count": 65533,
      "max": [
        0.6000000238418579,
        1.0
      ],
      "min": [
        0.0,
        0.0
      ],
      "type": "VEC2"
    },
    {
      "bufferView": 1,
      "byteOffset": 1048528,
      "componentType": 5126,
      "count": 65533,
      "max": [
        1.0,
        1.0
      ],
      "min": [
        0.0,
        0.0
      ],
      "type": "VEC2"
    },
    {
      "bufferView": 0,
      "componentType": 5125,
      "count": 154482,
      "type": "SCALAR"
    },
    {
      "bufferView": 2,
      "byteOffset": 1572792,
      "componentType": 5126,
      "count": 14008,
      "max": [
        0.3557080328464508,
        1.0071687698364258,
        -0.331525981426239
      ],
      "min": [
        -0.9383439421653748,
        0.14821255207061768,
        -1.0178771018981934
      ],
      "type": "VEC3"
    },
    {
      "bufferView": 2,
      "byteOffset": 1740888,
      "componentType": 5126,
      "count": 14008,
      "max": [
        1.0,
        1.0,
        1.0
      ],
      "min": [
        -1.0,
        -1.0,
        -1.0
      ],
      "type": "VEC3"
    },
    {
      "bufferView": 1,
      "byteOffset": 1572792,
      "componentType": 5126,
      "count": 14008,
      "max": [
        0.9340202212333679,
        0.9334434866905212
      ],
      "min": [
        0.001434849575161934,
        0.16571107506752014
      ],
      "type": "VEC2"
    },
    {
      "bufferView": 1,
      "byteOffset": 1684856,
      "componentType": 5126,
      "count": 14008,
      "max": [
        0.6000000238418579,
        1.0
      ],
      "min": [
        0.0,
        0.0
      ],
      "type": "VEC2"
    },
    {
      "bufferView": 1,
      "byteOffset": 1796920,
      "componentType": 5126,
      "count": 14008,
      "max": [
        0.9340202212333679,
        0.9334434866905212
      ],
      "min": [
        0.001434849575161934,
        0.16571107506752014
      ],
      "type": "VEC2"
    },
    {
      "bufferView": 0,
      "byteOffset": 617928,
      "componentType": 5125,
      "count": 44358,
      "type": "SCALAR"
    },
    {
      "bufferView": 2,
      "byteOffset": 1908984,
      "componentType": 5126,
      "count": 11120,
      "max": [
        0.35721293091773987,
        0.9701382517814636,
        -0.6836032867431641
      ],
      "min": [
        -0.35765907168388367,
        0.1292656660079956,
        -0.8178472518920898
      ],
      "type": "VEC3"
    },
    {
      "bufferView": 2,
      "byteOffset": 2042424,
      "componentType": 5126,
      "count": 11120,
      "max": [
        0.9999938607215881,
        1.0,
        1.0
      ],
      "min": [
        -0.9999381899833679,
        -0.9999998211860657,
        -1.0
      ],
      "type": "VEC3"
    },
    {
      "bufferView": 1,
      "byteOffset": 1908984,
      "componentType": 5126,
      "count": 11120,
      "max": [
        1.0,
        1.0
      ],
      "min": [
        0.0,
        0.0
      ],
      "type": "VEC2"
    },
    {
      "bufferView": 1,
      "byteOffset": 1997944,
      "componentType": 5126,
      "count": 11120,
      "max": [
        0.0,
        0.0
      ],
      "min": [
        0.0,
        0.0
      ],
      "type": "VEC2"
    },
    {
      "bufferView": 0,
      "byteOffset": 795360,
      "componentType": 5125,
      "count": 51690,
      "type": "SCALAR"
    },
    {
      "bufferView": 2,
      "byteOffset": 2175864,
      "componentType": 5126,
      "count": 768,
      "max": [
        0.5455384254455566,
        0.06290191411972046,
        -0.9893723130226135
      ],
      "min": [
        -0.5455384254455566,
        -0.629845380783081,
        -1.0093629360198975
      ],
      "type": "VEC3"
    },
    {
      "bufferView": 2,
      "byteOffset": 2185080,
      "componentType": 5126,
      "count": 768,
      "max": [
        0.9996772408485413,
        0.9998700022697449,
        0.9999908804893494
      ],
      "min": [
        -0.9996772408485413,
        -0.9998700618743896,
        -0.9931522011756897
      ],
      "type": "VEC3"
    },
    {
      "bufferView": 1,
      "byteOffset": 2086904,
      "componentType": 5126,
      "count": 768,
      "max": [
        1.0,
        0.9999999403953552
      ],
      "min": [
        0.0,
        0.0
      ],
      "type": "VEC2"
    },
    {
      "bufferView": 1,
      "byteOffset": 2093048,
      "componentType": 5126,
      "count": 768,
      "max": [
        0.0,
        0.0
      ],
      "min": [
        0.0,
        0.0
      ],
      "type": "VEC2"
    },
    {
      "bufferView": 0,
      "byteOffset": 1002120,
      "componentType": 5125,
      "count": 1152,
      "type": "SCALAR"
    },
    {
      "bufferView": 2,
      "byteOffset": 2194296,
      "componentType": 5126,
      "count": 16,
      "max": [
        1.0367462635040283,
        1.0314968824386597,
        0.9486061930656433
      ],
      "min": [
        -1.0367462635040283,
        0.7828906774520874,
        -0.9486061930656433
      ],
      "type": "VEC3"
    },
    {
      "bufferView": 2,
      "byteOffset": 2194488,
      "componentType": 5126,
      "count": 16,
      "max": [
        1.0,
        0.0,
        0.0
      ],
      "min": [
        -1.0,
        -1.0,
        0.0
      ],
      "type": "VEC3"
    },
    {
      "bufferView": 1,
      "byteOffset": 2099192,
      "componentType": 5126,
      "count": 16,
      "max": [
        0.9892081618309021,
        0.5227519273757935
      ],
      "min": [
        0.48074448108673096,
        0.00228273868560791
      ],
      "type": "VEC2"
    },
    {
      "bufferView": 1,
      "byteOffset": 2099320,
      "componentType": 5126,
      "count": 16,
      "max": [
        0.0,
        0.0
      ],
      "min": [
        0.0,
        0.0
      ],
      "type": "VEC2"
    },
    {
      "bufferView": 0,
      "byteOffset": 1006728,
      "componentType": 5125,
      "count": 24,
      "type": "SCALAR"
    }
  ],
  "asset": {
    "extras": {
      "author": "dylanheyes (https://sketchfab.com/dylanheyes)",
      "license": "CC-BY-4.0 (http://creativecommons.org/licenses/by/4.0/)",
      "source": "https://sketchfab.com/3d-models/minimalistic-modern-bedroom-4f3db3cb57bd4bce886f7b9a13273a2f",
      "title": "Minimalistic Modern Bedroom"
    },
    "generator": "Sketchfab-14.64.0",
    "version": "2.0"
  },
  "bufferViews": [
    {
      "buffer": 0,
      "byteLength": 1006824,
      "name": "floatBufferViews",
      "target": 34963
    },
    {
      "buffer": 0,
      "byteLength": 2099448,
      "byteOffset": 1006824,
      "byteStride": 8,
      "name": "floatBufferViews",
      "target": 34962
    },
    {
      "buffer": 0,
      "byteLength": 2194680,
      "byteOffset": 3106272,
      "byteStride": 12,
      "name": "floatBufferViews",
      "target": 34962
    }
  ],
  "buffers": [
    {
      "byteLength": 5300952,
      "uri": "scene.bin"
    }
  ],
  "images": [
    {
      "uri": "textures/Bedroom_baseColor.png"
    },
    {
      "uri": "textures/Bedroom_metallicRoughness.png"
    },
    {
      "uri": "textures/Duvet_baseColor.png"
    },
    {
      "uri": "textures/Duvet_metallicRoughness.png"
    },
    {
      "uri": "textures/Carpet_baseColor.png"
    },
    {
      "uri": "textures/Carpet_metallicRoughness.png"
    }
  ],
  "materials": [
    {
      "emissiveFactor": [
        0.45,
        0.45,
        0.45
      ],
      "emissiveTexture": {
        "index": 0
      },
      "name": "Bedroom",
      "pbrMetallicRoughness": {
        "baseColorTexture": {
          "index": 0
        },
        "metallicFactor": 0.45,
        "metallicRoughnessTexture": {
          "index": 1
        }
      }
    },
    {
      "doubleSided": true,
      "emissiveFactor": [
        1.0,
        1.0,
        1.0
      ],
      "emissiveTexture": {
        "index": 2
      },
      "name": "Duvet",
      "pbrMetallicRoughness": {
        "baseColorTexture": {
          "index": 2
        },
        "metallicFactor": 0.735,
        "metallicRoughnessTexture": {
          "index": 3
        }
      }
    },
    {
      "emissiveFactor": [
        1.0,
        1.0,
        1.0
      ],
      "emissiveTexture": {
        "index": 4
      },
      "name": "Carpet",
      "pbrMetallicRoughness": {
        "baseColorFactor": [
          0.48,
          0.48,
          0.48,
          1.0
        ],
        "baseColorTexture": {
          "index": 4
        },
        "metallicFactor": 0.8,
        "metallicRoughnessTexture": {
          "index": 5
        }
      }
    },
    {
      "alphaMode": "BLEND",
      "name": "Windows",
      "pbrMetallicRoughness": {
        "baseColorFactor": [
          0.8,
          0.8,
          0.8,
          0.35
        ],
        "metallicFactor": 0.0,
        "roughnessFactor": 0.8211145618000169
      }
    }
  ],
  "meshes": [
    {
      "name": "Bedroom_Bedroom_0",
      "primitives": [
        {
          "attributes": {
            "NORMAL": 1,
            "POSITION": 0,
            "TEXCOORD_0": 2,
            "TEXCOORD_1": 3,
            "TEXCOORD_2": 4
          },
          "indices": 5,
          "material": 0,
          "mode": 4
        }
      ]
    },
    {
      "name": "Bedroom_Bedroom_0",
      "primitives": [
        {
          "attributes": {
            "NORMAL": 7,
            "POSITION": 6,
            "TEXCOORD_0": 8,
            "TEXCOORD_1": 9,
            "TEXCOORD_2": 10
          },
          "indices": 11,
          "material": 0,
          "mode": 4
        }
      ]
    },
    {
      "name": "Bedroom_Duvet_0",
      "primitives": [
        {
          "attributes": {
            "NORMAL": 13,
            "POSITION": 12,
            "TEXCOORD_0": 14,
            "TEXCOORD_1": 15
          },
          "indices": 16,
          "material": 1,
          "mode": 4
        }
      ]
    },
    {
      "name": "Bedroom_Carpet_0",
      "primitives": [
        {
          "attributes": {
            "NORMAL": 18,
            "POSITION": 17,
            "TEXCOORD_0": 19,
            "TEXCOORD_1": 20
          },
          "indices": 21,
          "material": 2,
          "mode": 4
        }
      ]
    },
    {
      "name": "Bedroom_Windows_0",
      "primitives": [
        {
          "attributes": {
            "NORMAL": 23,
            "POSITION": 22,
            "TEXCOORD_0": 24,
            "TEXCOORD_1": 25
          },
          "indices": 26,
          "material": 3,
          "mode": 4
        }
      ]
    }
  ],
  "nodes": [
    {
      "children": [
        1
      ],
      "matrix": [
        0.0944090411067009,
        0.0,
        0.0,
        0.0,
        0.0,
        2.096301823388844e-17,
        -0.0944090411067009,
        0.0,
        0.0,
        0.0944090411067009,
        2.096301823388844e-17,
        0.0,
        0.0,
        0.0,
        0.0,
        1.0
      ],
      "name": "Sketchfab_model"
    },
    {
      "children": [
        2
      ],
      "matrix": [
        0.009999999776482582,
        0.0,
        0.0,
        0.0,
        0.0,
        0.0,
        0.009999999776482582,
        0.0,
        0.0,
        -0.009999999776482582,
        0.0,
        0.0,
        0.0,
        0.0,
        0.0,
        1.0
      ],
      "name": "Minimalistic Modern Bedroom.fbx"
    },
    {
      "children": [
        3
      ],
      "name": "RootNode"
    },
    {
      "children": [
        4,
        5,
        6,
        7,
        8
      ],
      "matrix": [
        2721.360107421875,
        0.0,
        0.0,
        0.0,
        0.0,
        -0.0005172600709109788,
        -3174.919677734333,
        0.0,
        0.0,
        1814.2401123046636,
        -0.0002955772316765922,
        0.0,
        0.0,
        0.0,
        0.0,
        1.0
      ],
      "name": "Bedroom"
    },
    {
      "mesh": 0,
      "name": "Bedroom_Bedroom_0"
    },
    {
      "mesh": 1,
      "name": "Bedroom_Bedroom_0"
    },
    {
      "mesh": 2,
      "name": "Bedroom_Duvet_0"
    },
    {
      "mesh": 3,
      "name": "Bedroom_Carpet_0"
    },
    {
      "mesh": 4,
      "name": "Bedroom_Windows_0"
    }
  ],
  "samplers": [
    {
      "magFilter": 9729,
      "minFilter": 9987,
      "wrapS": 10497,
      "wrapT": 10497
    }
  ],
  "scene": 0,
  "scenes": [
    {
      "name": "Sketchfab_Scene",
      "nodes": [
        0
      ]
    }
  ],
  "textures": [
    {
      "sampler": 0,
      "source": 0
    },
    {
      "sampler": 0,
      "source": 1
    },
    {
      "sampler": 0,
      "source": 2
    },
    {
      "sampler": 0,
      "source": 3
    },
    {
      "sampler": 0,
      "source": 4
    },
    {
      "sampler": 0,
      "source": 5
    }
  ]
}
